<svg xmlns="http://www.w3.org/2000/svg" xmlns:xlink="http://www.w3.org/1999/xlink" width="40" zoomAndPan="magnify" viewBox="0 0 30 30.000001" height="40" preserveAspectRatio="xMidYMid meet" version="1.0"><defs><g/><clipPath id="11749f1dc7"><path d="M 0.484375 0 L 29.515625 0 L 29.515625 29.03125 L 0.484375 29.03125 Z M 0.484375 0 " clip-rule="nonzero"/></clipPath><clipPath id="5964483e34"><path d="M 20 11 L 25 11 L 25 14 L 20 14 Z M 20 11 " clip-rule="nonzero"/></clipPath><clipPath id="41369bfb57"><path d="M 18.558594 10.617188 L 25.691406 9.742188 L 26.207031 13.953125 L 19.074219 14.828125 Z M 18.558594 10.617188 " clip-rule="nonzero"/></clipPath><clipPath id="a10c2efaa9"><path d="M 18.558594 10.617188 L 25.691406 9.742188 L 26.207031 13.953125 L 19.074219 14.828125 Z M 18.558594 10.617188 " clip-rule="nonzero"/></clipPath><clipPath id="bcca53c5f2"><path d="M 19 12 L 21 12 L 21 14 L 19 14 Z M 19 12 " clip-rule="nonzero"/></clipPath><clipPath id="60e02b7a4a"><path d="M 18.558594 10.617188 L 25.691406 9.742188 L 26.207031 13.953125 L 19.074219 14.828125 Z M 18.558594 10.617188 " clip-rule="nonzero"/></clipPath><clipPath id="81e9bab991"><path d="M 18.558594 10.617188 L 25.691406 9.742188 L 26.207031 13.953125 L 19.074219 14.828125 Z M 18.558594 10.617188 " clip-rule="nonzero"/></clipPath></defs><g clip-path="url(#11749f1dc7)"><path fill="#ffffff" d="M 0.484375 0 L 29.515625 0 L 29.515625 29.03125 L 0.484375 29.03125 Z M 0.484375 0 " fill-opacity="1" fill-rule="nonzero"/><path fill="#ffffff" d="M 0.484375 0 L 29.515625 0 L 29.515625 29.03125 L 0.484375 29.03125 Z M 0.484375 0 " fill-opacity="1" fill-rule="nonzero"/></g><path fill="#f2a03d" d="M 19.292969 12.214844 C 18.617188 12.609375 18.042969 12.953125 18.015625 12.980469 C 17.949219 13.042969 17.949219 13.171875 18.011719 13.230469 C 18.035156 13.257812 18.222656 13.375 18.421875 13.492188 C 18.625 13.605469 19.175781 13.929688 19.648438 14.210938 C 20.316406 14.605469 20.523438 14.71875 20.59375 14.71875 C 20.664062 14.71875 20.886719 14.59375 21.65625 14.136719 C 22.191406 13.816406 22.695312 13.515625 22.769531 13.46875 L 22.910156 13.386719 L 22.917969 14.609375 C 22.917969 15.28125 22.914062 15.839844 22.902344 15.851562 C 22.890625 15.859375 22.367188 16.167969 21.734375 16.535156 L 20.585938 17.203125 L 19.421875 16.527344 L 18.261719 15.851562 L 18.253906 15.378906 C 18.246094 15.070312 18.238281 14.898438 18.21875 14.875 C 18.179688 14.832031 18.007812 14.742188 17.957031 14.742188 C 17.925781 14.742188 17.921875 14.824219 17.921875 15.375 C 17.921875 15.835938 17.929688 16.019531 17.953125 16.050781 C 17.992188 16.097656 18.058594 16.140625 19.128906 16.757812 C 20.519531 17.566406 20.5 17.554688 20.585938 17.554688 C 20.644531 17.554688 20.828125 17.464844 21.234375 17.222656 C 21.546875 17.042969 22.101562 16.71875 22.46875 16.507812 C 22.835938 16.292969 23.160156 16.089844 23.191406 16.054688 L 23.246094 15.996094 L 23.246094 14.507812 C 23.246094 13.09375 23.246094 13.011719 23.203125 12.976562 C 23.097656 12.878906 23.042969 12.90625 21.8125 13.640625 C 21.15625 14.027344 20.613281 14.34375 20.605469 14.347656 C 20.582031 14.351562 18.453125 13.125 18.453125 13.109375 C 18.453125 13.097656 19.867188 12.269531 20.457031 11.9375 L 20.597656 11.855469 L 21.085938 12.132812 C 21.355469 12.28125 21.605469 12.40625 21.640625 12.40625 C 21.734375 12.40625 21.902344 12.300781 21.902344 12.246094 C 21.902344 12.183594 20.707031 11.503906 20.597656 11.5 C 20.542969 11.5 20.175781 11.703125 19.292969 12.214844 Z M 19.292969 12.214844 " fill-opacity="1" fill-rule="nonzero"/><path fill="#f2a03d" d="M 19.421875 14.886719 C 19.410156 14.894531 19.402344 14.980469 19.402344 15.078125 L 19.402344 15.257812 L 19.710938 15.433594 C 19.882812 15.527344 20.089844 15.648438 20.175781 15.703125 C 20.402344 15.835938 20.410156 15.835938 20.410156 15.613281 L 20.410156 15.429688 L 20 15.195312 C 19.777344 15.0625 19.558594 14.9375 19.515625 14.914062 C 19.472656 14.886719 19.429688 14.875 19.421875 14.886719 Z M 19.421875 14.886719 " fill-opacity="1" fill-rule="nonzero"/><path fill="#f2a03d" d="M 19.707031 15.957031 L 19.707031 16.144531 L 20.027344 16.335938 C 20.207031 16.441406 20.363281 16.527344 20.378906 16.527344 C 20.398438 16.527344 20.410156 16.46875 20.410156 16.34375 L 20.410156 16.160156 L 20.089844 15.972656 C 19.914062 15.871094 19.753906 15.78125 19.738281 15.777344 C 19.710938 15.769531 19.707031 15.816406 19.707031 15.957031 Z M 19.707031 15.957031 " fill-opacity="1" fill-rule="nonzero"/><g clip-path="url(#5964483e34)"><g clip-path="url(#41369bfb57)"><g clip-path="url(#a10c2efaa9)"><path fill="#014d87" d="M 20.808594 11.777344 C 20.765625 11.835938 20.730469 11.890625 20.730469 11.894531 C 20.730469 11.898438 20.925781 12.082031 21.164062 12.304688 C 21.398438 12.53125 21.589844 12.714844 21.589844 12.71875 C 21.582031 12.726562 21.351562 12.839844 20.90625 13.058594 C 20.472656 13.269531 20.101562 13.453125 20.097656 13.457031 C 20.097656 13.460938 20.113281 13.46875 20.136719 13.472656 C 20.265625 13.511719 20.871094 13.519531 21.140625 13.484375 L 21.265625 13.46875 L 21.839844 13.199219 C 23.933594 12.21875 24.480469 11.957031 24.542969 11.90625 C 24.625 11.84375 24.75 11.6875 24.773438 11.621094 C 24.800781 11.542969 24.796875 11.5 24.75 11.460938 C 24.710938 11.421875 24.652344 11.410156 24.535156 11.40625 C 24.371094 11.398438 24.363281 11.402344 23.527344 11.800781 L 22.761719 12.164062 L 21.84375 11.921875 C 21.335938 11.789062 20.914062 11.675781 20.90625 11.675781 C 20.894531 11.671875 20.863281 11.703125 20.808594 11.777344 Z M 20.808594 11.777344 " fill-opacity="1" fill-rule="nonzero"/></g></g></g><g clip-path="url(#bcca53c5f2)"><g clip-path="url(#60e02b7a4a)"><g clip-path="url(#81e9bab991)"><path fill="#014d87" d="M 19.671875 12.90625 L 19.609375 12.980469 L 19.820312 13.175781 C 19.941406 13.285156 20.042969 13.367188 20.050781 13.367188 C 20.074219 13.363281 20.558594 13.125 20.558594 13.117188 C 20.558594 13.113281 19.773438 12.839844 19.742188 12.835938 C 19.738281 12.832031 19.707031 12.867188 19.671875 12.90625 Z M 19.671875 12.90625 " fill-opacity="1" fill-rule="nonzero"/></g></g></g><path fill="#000000" d="M 17.332031 13.566406 C 17.238281 13.582031 17.160156 13.621094 17.089844 13.695312 C 17.027344 13.761719 16.992188 13.835938 16.96875 13.929688 C 16.910156 14.207031 17.035156 14.460938 17.273438 14.535156 C 17.34375 14.554688 17.476562 14.558594 17.546875 14.539062 C 17.65625 14.507812 17.734375 14.449219 17.792969 14.363281 C 17.816406 14.320312 17.855469 14.226562 17.855469 14.203125 C 17.855469 14.191406 17.886719 14.191406 18.144531 14.183594 C 18.300781 14.183594 18.578125 14.179688 18.757812 14.179688 L 19.085938 14.179688 L 19.109375 14.15625 C 19.128906 14.136719 19.132812 14.132812 19.132812 14.070312 C 19.132812 14.035156 19.128906 14.003906 19.125 14 C 19.105469 13.96875 19.101562 13.96875 18.472656 13.964844 L 17.859375 13.960938 L 17.855469 13.925781 C 17.839844 13.847656 17.773438 13.71875 17.71875 13.667969 C 17.6875 13.636719 17.609375 13.597656 17.558594 13.582031 C 17.503906 13.5625 17.390625 13.554688 17.332031 13.566406 Z M 17.476562 13.753906 C 17.558594 13.773438 17.621094 13.835938 17.664062 13.921875 C 17.679688 13.964844 17.683594 13.976562 17.683594 14.066406 C 17.683594 14.15625 17.683594 14.164062 17.660156 14.210938 C 17.628906 14.277344 17.589844 14.320312 17.53125 14.347656 C 17.378906 14.425781 17.203125 14.34375 17.152344 14.175781 C 17.140625 14.132812 17.136719 14.109375 17.140625 14.046875 C 17.144531 13.980469 17.148438 13.960938 17.167969 13.917969 C 17.207031 13.832031 17.265625 13.773438 17.347656 13.753906 C 17.398438 13.738281 17.421875 13.738281 17.476562 13.753906 Z M 17.476562 13.753906 " fill-opacity="1" fill-rule="nonzero"/><path fill="#000000" d="M 18.691406 14.382812 C 18.691406 14.480469 18.695312 14.484375 18.710938 14.492188 C 18.730469 14.503906 19.027344 14.507812 19.0625 14.496094 C 19.078125 14.492188 19.078125 14.488281 19.078125 14.390625 L 19.078125 14.289062 L 18.6875 14.289062 Z M 18.691406 14.382812 " fill-opacity="1" fill-rule="nonzero"/><g fill="#000000" fill-opacity="1"><g transform="translate(1.570665, 16.287099)"><g><path d="M 1.78125 -1.203125 L 1.5 -0.890625 L 1.5 0 L 0.296875 0 L 0.296875 -3.625 L 1.5 -3.625 L 1.5 -2.3125 L 2.6875 -3.625 L 4.03125 -3.625 L 2.578125 -2.03125 L 4.09375 0 L 2.6875 0 Z M 1.78125 -1.203125 "/></g></g></g><g fill="#000000" fill-opacity="1"><g transform="translate(5.538559, 16.287099)"><g><path d="M 3.3125 -0.921875 L 3.3125 0 L 0.296875 0 L 0.296875 -3.625 L 3.25 -3.625 L 3.25 -2.703125 L 1.5 -2.703125 L 1.5 -2.28125 L 3.03125 -2.28125 L 3.03125 -1.40625 L 1.5 -1.40625 L 1.5 -0.921875 Z M 3.3125 -0.921875 "/></g></g></g><g fill="#000000" fill-opacity="1"><g transform="translate(9.003334, 16.287099)"><g><path d="M 2.453125 -1.3125 L 2.453125 0 L 1.234375 0 L 1.234375 -1.328125 L -0.140625 -3.625 L 1.15625 -3.625 L 1.890625 -2.375 L 2.640625 -3.625 L 3.828125 -3.625 Z M 2.453125 -1.3125 "/></g></g></g><g fill="#000000" fill-opacity="1"><g transform="translate(12.685955, 16.287099)"><g><path d="M 3.203125 -1.90625 C 3.410156 -1.820312 3.570312 -1.703125 3.6875 -1.546875 C 3.8125 -1.398438 3.875 -1.21875 3.875 -1 C 3.875 -0.6875 3.742188 -0.441406 3.484375 -0.265625 C 3.222656 -0.0859375 2.84375 0 2.34375 0 L 0.296875 0 L 0.296875 -3.625 L 2.234375 -3.625 C 2.722656 -3.625 3.085938 -3.535156 3.328125 -3.359375 C 3.578125 -3.191406 3.703125 -2.96875 3.703125 -2.6875 C 3.703125 -2.507812 3.660156 -2.351562 3.578125 -2.21875 C 3.492188 -2.082031 3.367188 -1.976562 3.203125 -1.90625 Z M 1.5 -2.78125 L 1.5 -2.234375 L 2.0625 -2.234375 C 2.332031 -2.234375 2.46875 -2.320312 2.46875 -2.5 C 2.46875 -2.6875 2.332031 -2.78125 2.0625 -2.78125 Z M 2.234375 -0.859375 C 2.503906 -0.859375 2.640625 -0.953125 2.640625 -1.140625 C 2.640625 -1.328125 2.503906 -1.421875 2.234375 -1.421875 L 1.5 -1.421875 L 1.5 -0.859375 Z M 2.234375 -0.859375 "/></g></g></g><g fill="#000000" fill-opacity="1"><g transform="translate(16.695564, 16.287099)"><g/></g></g><g fill="#000000" fill-opacity="1"><g transform="translate(18.251601, 16.287099)"><g/></g></g><g fill="#000000" fill-opacity="1"><g transform="translate(19.807638, 16.287099)"><g/></g></g><g fill="#000000" fill-opacity="1"><g transform="translate(21.363675, 16.287099)"><g/></g></g><g fill="#000000" fill-opacity="1"><g transform="translate(22.919712, 16.287099)"><g/></g></g><g fill="#000000" fill-opacity="1"><g transform="translate(24.476209, 16.287099)"><g><path d="M 2.59375 0 L 1.96875 -0.96875 L 1.359375 0 L -0.046875 0 L 1.265625 -1.828125 L 0 -3.625 L 1.375 -3.625 L 2 -2.71875 L 2.59375 -3.625 L 3.921875 -3.625 L 2.65625 -1.875 L 4 0 Z M 2.59375 0 "/></g></g></g></svg>